<svg width="600" height="500" viewBox="0 0 600 500" fill="none" xmlns="http://www.w3.org/2000/svg">
  <!-- Background circle -->
  <circle cx="300" cy="250" r="200" fill="#F8F0FF" opacity="0.8" />
  
  <!-- Desk -->
  <rect x="150" y="300" width="300" height="20" rx="5" fill="#D4B0FF" />
  <rect x="170" y="320" width="260" height="10" rx="2" fill="#C492FF" />
  
  <!-- Chair -->
  <rect x="250" y="330" width="100" height="15" rx="5" fill="#9F69FA" />
  <rect x="260" y="345" width="80" height="60" rx="5" fill="#7C3AED" />
  <rect x="270" y="405" width="60" height="10" rx="2" fill="#6D28D9" />
  
  <!-- Person -->
  <!-- Body -->
  <rect x="260" y="250" width="80" height="100" rx="40" fill="#B36BFA" />
  
  <!-- Head -->
  <circle cx="300" cy="210" r="40" fill="#FFD6CC" />
  <path d="M280 200 Q300 220 320 200" stroke="#333" stroke-width="2" fill="none" />
  <circle cx="285" cy="190" r="5" fill="#333" />
  <circle cx="315" cy="190" r="5" fill="#333" />
  
  <!-- Hair -->
  <path d="M270 180 Q300 150 330 180 L330 210 Q300 230 270 210 Z" fill="#333" />
  
  <!-- Arms -->
  <rect x="250" y="260" width="20" height="60" rx="10" fill="#B36BFA" />
  <rect x="330" y="260" width="20" height="60" rx="10" fill="#B36BFA" />
  
  <!-- Hands -->
  <circle cx="250" cy="320" r="10" fill="#FFD6CC" />
  <circle cx="350" cy="320" r="10" fill="#FFD6CC" />
  
  <!-- Laptop -->
  <rect x="200" y="250" width="100" height="5" rx="2" fill="#E0E0E0" />
  <rect x="200" y="255" width="100" height="70" rx="2" fill="#F0F0F0" />
  <rect x="210" y="260" width="80" height="50" rx="2" fill="#99C2FF" />
  
  <!-- Screen Content -->
  <rect x="220" y="265" width="30" height="10" rx="2" fill="#FF9B8F" />
  <rect x="255" y="265" width="25" height="10" rx="2" fill="#B2FF8F" />
  <rect x="220" y="280" width="50" height="5" rx="2" fill="#FFFFFF" />
  <rect x="220" y="290" width="60" height="5" rx="2" fill="#FFFFFF" />
  <rect x="220" y="300" width="40" height="5" rx="2" fill="#FFFFFF" />
  
  <!-- Coffee cup -->
  <rect x="320" y="270" width="20" height="25" rx="2" fill="white" />
  <path d="M320 275 L315 275 L315 290 L320 290" stroke="#E0E0E0" stroke-width="2" />
  <rect x="320" y="270" width="20" height="5" rx="1" fill="#FF9B8F" />
  
  <!-- Plant -->
  <rect x="380" y="250" width="30" height="50" rx="2" fill="#A8FFC2" opacity="0.7" />
  <rect x="390" y="200" width="10" height="50" rx="5" fill="#64D486" />
  <circle cx="395" cy="190" r="15" fill="#A8FFC2" />
  
  <!-- Shelf -->
  <rect x="450" y="150" width="100" height="10" rx="2" fill="#D4B0FF" />
  
  <!-- Items on shelf -->
  <rect x="460" y="120" width="15" height="30" rx="2" fill="#FFB6A8" />
  <rect x="480" y="100" width="20" height="50" rx="2" fill="#C492FF" />
  <circle cx="520" cy="130" r="15" fill="#99E5FF" />
  
  <!-- Router -->
  <rect x="390" y="300" width="30" height="15" rx="2" fill="white" />
  <circle cx="395" cy="305" r="2" fill="#7C3AED" opacity="0.7" />
  <circle cx="405" cy="305" r="2" fill="#7C3AED" opacity="0.7" />
  <circle cx="415" cy="305" r="2" fill="#7C3AED" opacity="0.7" />
  
  <!-- Floating elements -->
  <circle cx="150" cy="120" r="20" fill="#FF9B8F" opacity="0.2" />
  <circle cx="450" cy="80" r="15" fill="#B36BFA" opacity="0.2" />
  <circle cx="180" cy="400" r="25" fill="#99E5FF" opacity="0.2" />
  <circle cx="460" cy="350" r="30" fill="#A8FFC2" opacity="0.2" />
  
  <!-- Books -->
  <rect x="110" y="320" width="30" height="40" rx="2" transform="rotate(-10 110 320)" fill="#FF9B8F" opacity="0.8" />
  <rect x="115" y="318" width="30" height="40" rx="2" transform="rotate(-5 115 318)" fill="#B36BFA" opacity="0.8" />
  <rect x="120" y="315" width="30" height="40" rx="2" fill="#99E5FF" opacity="0.8" />
</svg>