<svg width="800" height="400" viewBox="0 0 800 400" xmlns="http://www.w3.org/2000/svg">
  <defs>
    <linearGradient id="bg" x1="0%" y1="0%" x2="100%" y2="100%">
      <stop offset="0%" stop-color="#e0f2fe" />
      <stop offset="100%" stop-color="#bfdbfe" />
    </linearGradient>
    <linearGradient id="accent" x1="0%" y1="0%" x2="100%" y2="100%">
      <stop offset="0%" stop-color="#3b82f6" />
      <stop offset="100%" stop-color="#2563eb" />
    </linearGradient>
  </defs>
  
  <!-- Background -->
  <rect width="800" height="400" fill="url(#bg)" />
  
  <!-- Code Symbol Pattern -->
  <g stroke="url(#accent)" stroke-width="2" fill="none" opacity="0.15">
    <!-- Code Brackets -->
    <path d="M100 120 L60 200 L100 280" />
    <path d="M200 120 L240 200 L200 280" />
    
    <!-- Curly Braces -->
    <path d="M300 120 C280 140, 290 180, 310 200 C290 220, 280 260, 300 280" />
    <path d="M400 120 C420 140, 410 180, 390 200 C410 220, 420 260, 400 280" />
    
    <!-- Angle Brackets -->
    <path d="M500 120 L540 200 L500 280" />
    <path d="M600 120 L560 200 L600 280" />
    
    <!-- Forward Slashes -->
    <path d="M660 120 L740 280" />
    <path d="M680 120 L760 280" />
  </g>
  
  <!-- Code Text Elements -->
  <g fill="#3b82f6" opacity="0.2">
    <rect x="120" y="140" width="60" height="10" rx="2" />
    <rect x="120" y="160" width="80" height="10" rx="2" />
    <rect x="140" y="180" width="100" height="10" rx="2" />
    <rect x="140" y="200" width="60" height="10" rx="2" />
    <rect x="120" y="220" width="90" height="10" rx="2" />
    <rect x="120" y="240" width="40" height="10" rx="2" />
    
    <rect x="320" y="150" width="60" height="10" rx="2" />
    <rect x="340" y="170" width="80" height="10" rx="2" />
    <rect x="340" y="190" width="40" height="10" rx="2" />
    <rect x="320" y="210" width="90" height="10" rx="2" />
    <rect x="340" y="230" width="50" height="10" rx="2" />
    
    <rect x="520" y="140" width="60" height="10" rx="2" />
    <rect x="540" y="160" width="40" height="10" rx="2" />
    <rect x="520" y="180" width="90" height="10" rx="2" />
    <rect x="540" y="200" width="60" height="10" rx="2" />
    <rect x="520" y="220" width="80" height="10" rx="2" />
    <rect x="540" y="240" width="30" height="10" rx="2" />
  </g>
</svg>