<svg width="800" height="400" viewBox="0 0 800 400" xmlns="http://www.w3.org/2000/svg">
  <defs>
    <linearGradient id="bg" x1="0%" y1="0%" x2="100%" y2="100%">
      <stop offset="0%" stop-color="#fdf4ff" />
      <stop offset="100%" stop-color="#f5d0fe" />
    </linearGradient>
    <linearGradient id="accent" x1="0%" y1="0%" x2="100%" y2="100%">
      <stop offset="0%" stop-color="#c026d3" />
      <stop offset="100%" stop-color="#a21caf" />
    </linearGradient>
  </defs>
  
  <!-- Background -->
  <rect width="800" height="400" fill="url(#bg)" />
  
  <!-- Design Elements -->
  <g stroke="url(#accent)" stroke-width="2" fill="none" opacity="0.15">
    <!-- Design Grid -->
    <line x1="80" y1="100" x2="80" y2="300" />
    <line x1="120" y1="100" x2="120" y2="300" />
    <line x1="160" y1="100" x2="160" y2="300" />
    <line x1="200" y1="100" x2="200" y2="300" />
    <line x1="240" y1="100" x2="240" y2="300" />
    <line x1="280" y1="100" x2="280" y2="300" />
    
    <line x1="80" y1="100" x2="280" y2="100" />
    <line x1="80" y1="140" x2="280" y2="140" />
    <line x1="80" y1="180" x2="280" y2="180" />
    <line x1="80" y1="220" x2="280" y2="220" />
    <line x1="80" y1="260" x2="280" y2="260" />
    <line x1="80" y1="300" x2="280" y2="300" />
    
    <!-- Color Palette -->
    <circle cx="350" cy="150" r="30" />
    <circle cx="400" cy="150" r="30" />
    <circle cx="450" cy="150" r="30" />
    <circle cx="500" cy="150" r="30" />
    <circle cx="550" cy="150" r="30" />
    
    <!-- Typography Elements -->
    <rect x="350" y="220" width="250" height="10" rx="2" />
    <rect x="350" y="240" width="200" height="10" rx="2" />
    <rect x="350" y="260" width="230" height="10" rx="2" />
    <rect x="350" y="280" width="180" height="10" rx="2" />
    
    <!-- UI Elements -->
    <rect x="650" y="130" width="100" height="40" rx="8" />
    <rect x="650" y="190" width="100" height="40" rx="8" />
    <rect x="650" y="250" width="100" height="40" rx="8" />
  </g>
  
  <!-- Design Shapes and Icons -->
  <g fill="#c026d3" opacity="0.2">
    <!-- Design Tools -->
    <circle cx="130" cy="150" r="15" />
    <rect x="200" y="135" width="30" height="30" />
    
    <!-- Ruler Marks -->
    <rect x="100" y="120" width="2" height="10" />
    <rect x="120" y="120" width="2" height="10" />
    <rect x="140" y="120" width="2" height="10" />
    <rect x="160" y="120" width="2" height="10" />
    <rect x="180" y="120" width="2" height="10" />
    <rect x="200" y="120" width="2" height="10" />
    <rect x="220" y="120" width="2" height="10" />
    <rect x="240" y="120" width="2" height="10" />
    <rect x="260" y="120" width="2" height="10" />
    
    <!-- Color Swatches -->
    <circle cx="350" cy="150" r="20" />
    <circle cx="400" cy="150" r="20" />
    <circle cx="450" cy="150" r="20" />
    <circle cx="500" cy="150" r="20" />
    <circle cx="550" cy="150" r="20" />
    
    <!-- Buttons -->
    <rect x="660" y="140" width="80" height="20" rx="4" />
    <rect x="660" y="200" width="80" height="20" rx="4" />
    <rect x="660" y="260" width="80" height="20" rx="4" />
  </g>
</svg>